<mxfile host="Electron" agent="Mozilla/5.0 (Windows NT 10.0; Win64; x64) AppleWebKit/537.36 (KHTML, like Gecko) draw.io/27.0.5 Chrome/134.0.6998.205 Electron/35.3.0 Safari/537.36" version="27.0.5">
  <diagram name="Sayfa -1" id="ksjRblwogE8Bt93787qU">
    <mxGraphModel dx="1042" dy="618" grid="1" gridSize="10" guides="1" tooltips="1" connect="1" arrows="1" fold="1" page="1" pageScale="1" pageWidth="827" pageHeight="1169" math="0" shadow="0">
      <root>
        <mxCell id="0" />
        <mxCell id="1" parent="0" />
        <mxCell id="A5fcUt3JzEjcqh7Cv7gU-4" value="" style="edgeStyle=orthogonalEdgeStyle;rounded=0;orthogonalLoop=1;jettySize=auto;html=1;" parent="1" source="A5fcUt3JzEjcqh7Cv7gU-1" target="A5fcUt3JzEjcqh7Cv7gU-2" edge="1">
          <mxGeometry relative="1" as="geometry" />
        </mxCell>
        <mxCell id="A5fcUt3JzEjcqh7Cv7gU-1" value="" style="image;aspect=fixed;html=1;points=[];align=center;fontSize=12;image=img/lib/azure2/management_governance/My_Customers.svg;" parent="1" vertex="1">
          <mxGeometry x="40" y="40" width="61.61" height="50" as="geometry" />
        </mxCell>
        <mxCell id="A5fcUt3JzEjcqh7Cv7gU-5" value="" style="edgeStyle=orthogonalEdgeStyle;rounded=0;orthogonalLoop=1;jettySize=auto;html=1;" parent="1" source="A5fcUt3JzEjcqh7Cv7gU-2" target="A5fcUt3JzEjcqh7Cv7gU-3" edge="1">
          <mxGeometry relative="1" as="geometry" />
        </mxCell>
        <mxCell id="A5fcUt3JzEjcqh7Cv7gU-2" value="Amazon Route 53" style="sketch=0;outlineConnect=0;fontColor=#232F3E;gradientColor=none;strokeColor=#ffffff;fillColor=#232F3E;dashed=0;verticalLabelPosition=middle;verticalAlign=bottom;align=center;html=1;whiteSpace=wrap;fontSize=10;fontStyle=1;spacing=3;shape=mxgraph.aws4.productIcon;prIcon=mxgraph.aws4.route_53;" parent="1" vertex="1">
          <mxGeometry x="30.810000000000002" y="130" width="80" height="110" as="geometry" />
        </mxCell>
        <mxCell id="CQTaGRWy-1RV5N22hvQA-2" value="" style="edgeStyle=orthogonalEdgeStyle;rounded=0;orthogonalLoop=1;jettySize=auto;html=1;" parent="1" source="A5fcUt3JzEjcqh7Cv7gU-3" target="CQTaGRWy-1RV5N22hvQA-1" edge="1">
          <mxGeometry relative="1" as="geometry" />
        </mxCell>
        <mxCell id="A5fcUt3JzEjcqh7Cv7gU-3" value="" style="sketch=0;points=[[0,0,0],[0.25,0,0],[0.5,0,0],[0.75,0,0],[1,0,0],[0,1,0],[0.25,1,0],[0.5,1,0],[0.75,1,0],[1,1,0],[0,0.25,0],[0,0.5,0],[0,0.75,0],[1,0.25,0],[1,0.5,0],[1,0.75,0]];outlineConnect=0;fontColor=#232F3E;fillColor=#DD344C;strokeColor=#ffffff;dashed=0;verticalLabelPosition=bottom;verticalAlign=top;align=center;html=1;fontSize=12;fontStyle=0;aspect=fixed;shape=mxgraph.aws4.resourceIcon;resIcon=mxgraph.aws4.firewall_manager;" parent="1" vertex="1">
          <mxGeometry x="32.81" y="267.5" width="78" height="78" as="geometry" />
        </mxCell>
        <mxCell id="A5fcUt3JzEjcqh7Cv7gU-65" style="edgeStyle=orthogonalEdgeStyle;rounded=0;orthogonalLoop=1;jettySize=auto;html=1;" parent="1" source="A5fcUt3JzEjcqh7Cv7gU-6" target="A5fcUt3JzEjcqh7Cv7gU-62" edge="1">
          <mxGeometry relative="1" as="geometry">
            <Array as="points">
              <mxPoint x="150" y="500" />
              <mxPoint x="150" y="320" />
            </Array>
          </mxGeometry>
        </mxCell>
        <mxCell id="A5fcUt3JzEjcqh7Cv7gU-6" value="Amazon Cloudfront" style="sketch=0;outlineConnect=0;fontColor=#232F3E;gradientColor=none;strokeColor=#ffffff;fillColor=#232F3E;dashed=0;verticalLabelPosition=middle;verticalAlign=bottom;align=center;html=1;whiteSpace=wrap;fontSize=10;fontStyle=1;spacing=3;shape=mxgraph.aws4.productIcon;prIcon=mxgraph.aws4.cloudfront;" parent="1" vertex="1">
          <mxGeometry x="30.000000000000004" y="490" width="80" height="110" as="geometry" />
        </mxCell>
        <mxCell id="A5fcUt3JzEjcqh7Cv7gU-9" value="" style="fillColor=none;strokeColor=#147EBA;dashed=1;verticalAlign=top;fontStyle=0;fontColor=#147EBA;whiteSpace=wrap;html=1;" parent="1" vertex="1">
          <mxGeometry x="120" y="30" width="920" height="570" as="geometry" />
        </mxCell>
        <mxCell id="A5fcUt3JzEjcqh7Cv7gU-10" value="eu-central-1" style="text;html=1;align=center;verticalAlign=middle;whiteSpace=wrap;rounded=0;" parent="1" vertex="1">
          <mxGeometry x="120" y="40" width="70" height="30" as="geometry" />
        </mxCell>
        <mxCell id="A5fcUt3JzEjcqh7Cv7gU-16" style="edgeStyle=orthogonalEdgeStyle;rounded=0;orthogonalLoop=1;jettySize=auto;html=1;" parent="1" source="A5fcUt3JzEjcqh7Cv7gU-11" target="A5fcUt3JzEjcqh7Cv7gU-6" edge="1">
          <mxGeometry relative="1" as="geometry">
            <Array as="points">
              <mxPoint x="70" y="535" />
              <mxPoint x="70" y="490" />
            </Array>
          </mxGeometry>
        </mxCell>
        <mxCell id="A5fcUt3JzEjcqh7Cv7gU-11" value="" style="sketch=0;outlineConnect=0;fontColor=#232F3E;gradientColor=none;fillColor=#7AA116;strokeColor=none;dashed=0;verticalLabelPosition=bottom;verticalAlign=top;align=center;html=1;fontSize=12;fontStyle=0;aspect=fixed;pointerEvents=1;shape=mxgraph.aws4.bucket_with_objects;" parent="1" vertex="1">
          <mxGeometry x="141.92000000000002" y="500" width="48.08" height="50" as="geometry" />
        </mxCell>
        <mxCell id="A5fcUt3JzEjcqh7Cv7gU-12" value="S3 Bucket&lt;div&gt;for&lt;/div&gt;&lt;div&gt;Wordpress&lt;/div&gt;" style="text;html=1;align=center;verticalAlign=middle;whiteSpace=wrap;rounded=0;" parent="1" vertex="1">
          <mxGeometry x="135.96" y="560" width="60" height="30" as="geometry" />
        </mxCell>
        <mxCell id="A5fcUt3JzEjcqh7Cv7gU-17" value="hosting-101-vpc&amp;nbsp;10.0.0.0/16" style="points=[[0,0],[0.25,0],[0.5,0],[0.75,0],[1,0],[1,0.25],[1,0.5],[1,0.75],[1,1],[0.75,1],[0.5,1],[0.25,1],[0,1],[0,0.75],[0,0.5],[0,0.25]];outlineConnect=0;gradientColor=none;html=1;whiteSpace=wrap;fontSize=12;fontStyle=0;container=1;pointerEvents=0;collapsible=0;recursiveResize=0;shape=mxgraph.aws4.group;grIcon=mxgraph.aws4.group_vpc2;strokeColor=#808080;fillColor=none;verticalAlign=top;align=left;spacingLeft=30;fontColor=#AAB7B8;dashed=0;" parent="1" vertex="1">
          <mxGeometry x="200" y="80" width="760" height="480" as="geometry" />
        </mxCell>
        <mxCell id="A5fcUt3JzEjcqh7Cv7gU-19" value="Public subnet-us-central-1b" style="points=[[0,0],[0.25,0],[0.5,0],[0.75,0],[1,0],[1,0.25],[1,0.5],[1,0.75],[1,1],[0.75,1],[0.5,1],[0.25,1],[0,1],[0,0.75],[0,0.5],[0,0.25]];outlineConnect=0;gradientColor=none;html=1;whiteSpace=wrap;fontSize=12;fontStyle=0;container=1;pointerEvents=0;collapsible=0;recursiveResize=0;shape=mxgraph.aws4.group;grIcon=mxgraph.aws4.group_security_group;grStroke=0;strokeColor=#7AA116;fillColor=#F2F6E8;verticalAlign=top;align=left;spacingLeft=30;fontColor=#248814;dashed=0;" parent="A5fcUt3JzEjcqh7Cv7gU-17" vertex="1">
          <mxGeometry x="30" y="280" width="180" height="160" as="geometry" />
        </mxCell>
        <mxCell id="A5fcUt3JzEjcqh7Cv7gU-58" value="10.0.1.0/24" style="text;html=1;align=center;verticalAlign=middle;whiteSpace=wrap;rounded=0;" parent="A5fcUt3JzEjcqh7Cv7gU-19" vertex="1">
          <mxGeometry x="30" y="10" width="60" height="30" as="geometry" />
        </mxCell>
        <mxCell id="A5fcUt3JzEjcqh7Cv7gU-21" value="" style="sketch=0;outlineConnect=0;fontColor=#232F3E;gradientColor=none;fillColor=#8C4FFF;strokeColor=none;dashed=0;verticalLabelPosition=bottom;verticalAlign=top;align=center;html=1;fontSize=12;fontStyle=0;aspect=fixed;pointerEvents=1;shape=mxgraph.aws4.nat_gateway;" parent="A5fcUt3JzEjcqh7Cv7gU-19" vertex="1">
          <mxGeometry x="55" y="55" width="50" height="50" as="geometry" />
        </mxCell>
        <mxCell id="A5fcUt3JzEjcqh7Cv7gU-22" value="app-Private subnet-us-central-1a" style="points=[[0,0],[0.25,0],[0.5,0],[0.75,0],[1,0],[1,0.25],[1,0.5],[1,0.75],[1,1],[0.75,1],[0.5,1],[0.25,1],[0,1],[0,0.75],[0,0.5],[0,0.25]];outlineConnect=0;gradientColor=none;html=1;whiteSpace=wrap;fontSize=12;fontStyle=0;container=1;pointerEvents=0;collapsible=0;recursiveResize=0;shape=mxgraph.aws4.group;grIcon=mxgraph.aws4.group_security_group;grStroke=0;strokeColor=#00A4A6;fillColor=#E6F6F7;verticalAlign=top;align=left;spacingLeft=30;fontColor=#147EBA;dashed=0;" parent="A5fcUt3JzEjcqh7Cv7gU-17" vertex="1">
          <mxGeometry x="220" y="40" width="210" height="160" as="geometry" />
        </mxCell>
        <mxCell id="A5fcUt3JzEjcqh7Cv7gU-25" value="" style="sketch=0;points=[[0,0,0],[0.25,0,0],[0.5,0,0],[0.75,0,0],[1,0,0],[0,1,0],[0.25,1,0],[0.5,1,0],[0.75,1,0],[1,1,0],[0,0.25,0],[0,0.5,0],[0,0.75,0],[1,0.25,0],[1,0.5,0],[1,0.75,0]];outlineConnect=0;fontColor=#232F3E;fillColor=#ED7100;strokeColor=#ffffff;dashed=0;verticalLabelPosition=bottom;verticalAlign=top;align=center;html=1;fontSize=12;fontStyle=0;aspect=fixed;shape=mxgraph.aws4.resourceIcon;resIcon=mxgraph.aws4.ec2;" parent="A5fcUt3JzEjcqh7Cv7gU-22" vertex="1">
          <mxGeometry x="55" y="55" width="50" height="50" as="geometry" />
        </mxCell>
        <mxCell id="A5fcUt3JzEjcqh7Cv7gU-27" value="10.0.10.0/24" style="text;html=1;align=center;verticalAlign=middle;whiteSpace=wrap;rounded=0;" parent="A5fcUt3JzEjcqh7Cv7gU-22" vertex="1">
          <mxGeometry x="30" y="10" width="60" height="30" as="geometry" />
        </mxCell>
        <mxCell id="CQTaGRWy-1RV5N22hvQA-10" value="WordPress EC2 (PHP 8.3)&lt;div&gt;&lt;br&gt;&lt;/div&gt;" style="text;html=1;align=center;verticalAlign=middle;whiteSpace=wrap;rounded=0;" parent="A5fcUt3JzEjcqh7Cv7gU-22" vertex="1">
          <mxGeometry x="105" y="40" width="85" height="30" as="geometry" />
        </mxCell>
        <mxCell id="A5fcUt3JzEjcqh7Cv7gU-23" value="app-Private subnet-us-central-1b" style="points=[[0,0],[0.25,0],[0.5,0],[0.75,0],[1,0],[1,0.25],[1,0.5],[1,0.75],[1,1],[0.75,1],[0.5,1],[0.25,1],[0,1],[0,0.75],[0,0.5],[0,0.25]];outlineConnect=0;gradientColor=none;html=1;whiteSpace=wrap;fontSize=12;fontStyle=0;container=1;pointerEvents=0;collapsible=0;recursiveResize=0;shape=mxgraph.aws4.group;grIcon=mxgraph.aws4.group_security_group;grStroke=0;strokeColor=#00A4A6;fillColor=#E6F6F7;verticalAlign=top;align=left;spacingLeft=30;fontColor=#147EBA;dashed=0;" parent="A5fcUt3JzEjcqh7Cv7gU-17" vertex="1">
          <mxGeometry x="220" y="280" width="210" height="160" as="geometry" />
        </mxCell>
        <mxCell id="A5fcUt3JzEjcqh7Cv7gU-26" value="" style="sketch=0;points=[[0,0,0],[0.25,0,0],[0.5,0,0],[0.75,0,0],[1,0,0],[0,1,0],[0.25,1,0],[0.5,1,0],[0.75,1,0],[1,1,0],[0,0.25,0],[0,0.5,0],[0,0.75,0],[1,0.25,0],[1,0.5,0],[1,0.75,0]];outlineConnect=0;fontColor=#232F3E;fillColor=#ED7100;strokeColor=#ffffff;dashed=0;verticalLabelPosition=bottom;verticalAlign=top;align=center;html=1;fontSize=12;fontStyle=0;aspect=fixed;shape=mxgraph.aws4.resourceIcon;resIcon=mxgraph.aws4.ec2;" parent="A5fcUt3JzEjcqh7Cv7gU-23" vertex="1">
          <mxGeometry x="55" y="55" width="50" height="50" as="geometry" />
        </mxCell>
        <mxCell id="A5fcUt3JzEjcqh7Cv7gU-28" value="10.0.11.0/24" style="text;html=1;align=center;verticalAlign=middle;whiteSpace=wrap;rounded=0;" parent="A5fcUt3JzEjcqh7Cv7gU-23" vertex="1">
          <mxGeometry x="30" y="10" width="60" height="30" as="geometry" />
        </mxCell>
        <mxCell id="CQTaGRWy-1RV5N22hvQA-9" value="WordPress EC2 (PHP 8.3)&lt;div&gt;&lt;br&gt;&lt;/div&gt;" style="text;html=1;align=center;verticalAlign=middle;whiteSpace=wrap;rounded=0;" parent="A5fcUt3JzEjcqh7Cv7gU-23" vertex="1">
          <mxGeometry x="105" y="40" width="85" height="30" as="geometry" />
        </mxCell>
        <mxCell id="A5fcUt3JzEjcqh7Cv7gU-24" value="data-Private subnet-us-central-1a" style="points=[[0,0],[0.25,0],[0.5,0],[0.75,0],[1,0],[1,0.25],[1,0.5],[1,0.75],[1,1],[0.75,1],[0.5,1],[0.25,1],[0,1],[0,0.75],[0,0.5],[0,0.25]];outlineConnect=0;gradientColor=none;html=1;whiteSpace=wrap;fontSize=12;fontStyle=0;container=1;pointerEvents=0;collapsible=0;recursiveResize=0;shape=mxgraph.aws4.group;grIcon=mxgraph.aws4.group_security_group;grStroke=0;strokeColor=#00A4A6;fillColor=#E6F6F7;verticalAlign=top;align=left;spacingLeft=30;fontColor=#147EBA;dashed=0;" parent="A5fcUt3JzEjcqh7Cv7gU-17" vertex="1">
          <mxGeometry x="440" y="40" width="300" height="160" as="geometry" />
        </mxCell>
        <mxCell id="A5fcUt3JzEjcqh7Cv7gU-29" value="Amazon ElastiCache for Memcached" style="sketch=0;outlineConnect=0;fontColor=#232F3E;gradientColor=none;strokeColor=#ffffff;fillColor=#232F3E;dashed=0;verticalLabelPosition=middle;verticalAlign=bottom;align=center;html=1;whiteSpace=wrap;fontSize=10;fontStyle=1;spacing=3;shape=mxgraph.aws4.productIcon;prIcon=mxgraph.aws4.elasticache_for_memcached;" parent="A5fcUt3JzEjcqh7Cv7gU-24" vertex="1">
          <mxGeometry x="20" y="30" width="80" height="120" as="geometry" />
        </mxCell>
        <mxCell id="A5fcUt3JzEjcqh7Cv7gU-30" value="" style="outlineConnect=0;dashed=0;verticalLabelPosition=bottom;verticalAlign=top;align=center;html=1;shape=mxgraph.aws3.rds_db_instance_read_replica;fillColor=#2E73B8;gradientColor=none;" parent="A5fcUt3JzEjcqh7Cv7gU-24" vertex="1">
          <mxGeometry x="132.75" y="47" width="49.5" height="66" as="geometry" />
        </mxCell>
        <mxCell id="A5fcUt3JzEjcqh7Cv7gU-31" value="Read&lt;div&gt;Replica&lt;/div&gt;&lt;div&gt;MariaDB&lt;/div&gt;" style="text;html=1;align=center;verticalAlign=middle;whiteSpace=wrap;rounded=0;" parent="A5fcUt3JzEjcqh7Cv7gU-24" vertex="1">
          <mxGeometry x="126.25" y="24" width="62.5" height="23" as="geometry" />
        </mxCell>
        <mxCell id="A5fcUt3JzEjcqh7Cv7gU-33" value="EFS&lt;div&gt;Mount&lt;/div&gt;&lt;div&gt;Target&lt;/div&gt;" style="text;html=1;align=center;verticalAlign=middle;whiteSpace=wrap;rounded=0;" parent="A5fcUt3JzEjcqh7Cv7gU-24" vertex="1">
          <mxGeometry x="200" y="10" width="60" height="30" as="geometry" />
        </mxCell>
        <mxCell id="A5fcUt3JzEjcqh7Cv7gU-76" value="10.0.20.0/24" style="text;html=1;align=center;verticalAlign=middle;whiteSpace=wrap;rounded=0;" parent="A5fcUt3JzEjcqh7Cv7gU-24" vertex="1">
          <mxGeometry x="30" y="10" width="60" height="30" as="geometry" />
        </mxCell>
        <mxCell id="A5fcUt3JzEjcqh7Cv7gU-60" value="" style="outlineConnect=0;dashed=0;verticalLabelPosition=bottom;verticalAlign=top;align=center;html=1;shape=mxgraph.aws3.application_load_balancer;fillColor=#F58536;gradientColor=none;" parent="A5fcUt3JzEjcqh7Cv7gU-17" vertex="1">
          <mxGeometry x="96.36999999999999" y="213" width="47.25" height="46" as="geometry" />
        </mxCell>
        <mxCell id="A5fcUt3JzEjcqh7Cv7gU-63" value="Internet&lt;div&gt;gateway&lt;/div&gt;" style="text;html=1;align=center;verticalAlign=middle;whiteSpace=wrap;rounded=0;" parent="A5fcUt3JzEjcqh7Cv7gU-17" vertex="1">
          <mxGeometry x="-30" y="256" width="60" height="30" as="geometry" />
        </mxCell>
        <mxCell id="A5fcUt3JzEjcqh7Cv7gU-68" style="edgeStyle=orthogonalEdgeStyle;rounded=0;orthogonalLoop=1;jettySize=auto;html=1;" parent="A5fcUt3JzEjcqh7Cv7gU-17" source="A5fcUt3JzEjcqh7Cv7gU-26" target="A5fcUt3JzEjcqh7Cv7gU-21" edge="1">
          <mxGeometry relative="1" as="geometry" />
        </mxCell>
        <mxCell id="A5fcUt3JzEjcqh7Cv7gU-69" style="edgeStyle=orthogonalEdgeStyle;rounded=0;orthogonalLoop=1;jettySize=auto;html=1;entryX=0;entryY=0.25;entryDx=0;entryDy=0;entryPerimeter=0;startArrow=classic;startFill=1;" parent="A5fcUt3JzEjcqh7Cv7gU-17" source="A5fcUt3JzEjcqh7Cv7gU-60" target="A5fcUt3JzEjcqh7Cv7gU-26" edge="1">
          <mxGeometry relative="1" as="geometry" />
        </mxCell>
        <mxCell id="A5fcUt3JzEjcqh7Cv7gU-71" style="edgeStyle=orthogonalEdgeStyle;rounded=0;orthogonalLoop=1;jettySize=auto;html=1;entryX=0.855;entryY=0.145;entryDx=0;entryDy=0;entryPerimeter=0;startArrow=classic;startFill=1;exitX=0;exitY=0.75;exitDx=0;exitDy=0;exitPerimeter=0;" parent="A5fcUt3JzEjcqh7Cv7gU-17" source="A5fcUt3JzEjcqh7Cv7gU-25" target="A5fcUt3JzEjcqh7Cv7gU-60" edge="1">
          <mxGeometry relative="1" as="geometry">
            <Array as="points">
              <mxPoint x="220" y="133" />
              <mxPoint x="220" y="220" />
            </Array>
          </mxGeometry>
        </mxCell>
        <mxCell id="A5fcUt3JzEjcqh7Cv7gU-72" value="" style="sketch=0;outlineConnect=0;fontColor=#232F3E;gradientColor=none;fillColor=#ED7100;strokeColor=none;dashed=0;verticalLabelPosition=bottom;verticalAlign=top;align=center;html=1;fontSize=12;fontStyle=0;aspect=fixed;pointerEvents=1;shape=mxgraph.aws4.auto_scaling2;" parent="A5fcUt3JzEjcqh7Cv7gU-17" vertex="1">
          <mxGeometry x="260" y="213" width="48" height="48" as="geometry" />
        </mxCell>
        <mxCell id="A5fcUt3JzEjcqh7Cv7gU-73" style="edgeStyle=orthogonalEdgeStyle;rounded=0;orthogonalLoop=1;jettySize=auto;html=1;exitX=1;exitY=0.75;exitDx=0;exitDy=0;exitPerimeter=0;startArrow=classic;startFill=1;" parent="A5fcUt3JzEjcqh7Cv7gU-17" source="A5fcUt3JzEjcqh7Cv7gU-25" target="A5fcUt3JzEjcqh7Cv7gU-29" edge="1">
          <mxGeometry relative="1" as="geometry">
            <mxPoint x="350" y="130" as="sourcePoint" />
            <Array as="points">
              <mxPoint x="430" y="133" />
              <mxPoint x="430" y="133" />
            </Array>
          </mxGeometry>
        </mxCell>
        <mxCell id="A5fcUt3JzEjcqh7Cv7gU-83" style="edgeStyle=orthogonalEdgeStyle;rounded=0;orthogonalLoop=1;jettySize=auto;html=1;entryX=0.5;entryY=0.99;entryDx=0;entryDy=0;entryPerimeter=0;startArrow=classic;startFill=1;" parent="A5fcUt3JzEjcqh7Cv7gU-17" source="A5fcUt3JzEjcqh7Cv7gU-25" target="A5fcUt3JzEjcqh7Cv7gU-30" edge="1">
          <mxGeometry relative="1" as="geometry">
            <Array as="points">
              <mxPoint x="310" y="210" />
              <mxPoint x="598" y="210" />
            </Array>
          </mxGeometry>
        </mxCell>
        <mxCell id="A5fcUt3JzEjcqh7Cv7gU-85" value="Auto&amp;nbsp;&lt;span style=&quot;background-color: transparent; color: light-dark(rgb(0, 0, 0), rgb(255, 255, 255));&quot;&gt;Scaling&lt;/span&gt;" style="text;html=1;align=center;verticalAlign=middle;whiteSpace=wrap;rounded=0;" parent="A5fcUt3JzEjcqh7Cv7gU-17" vertex="1">
          <mxGeometry x="238.5" y="250" width="91" height="30" as="geometry" />
        </mxCell>
        <mxCell id="CQTaGRWy-1RV5N22hvQA-11" value="&#xa;Port 80/443 → EC2&#xa;&#xa;" style="text;html=1;align=center;verticalAlign=middle;whiteSpace=wrap;rounded=0;" parent="A5fcUt3JzEjcqh7Cv7gU-17" vertex="1">
          <mxGeometry x="108.5" y="213" width="120" height="10" as="geometry" />
        </mxCell>
        <mxCell id="CQTaGRWy-1RV5N22hvQA-12" value="&#xa;Port 80/443 → EC2&#xa;&#xa;" style="text;html=1;align=center;verticalAlign=middle;whiteSpace=wrap;rounded=0;" parent="A5fcUt3JzEjcqh7Cv7gU-17" vertex="1">
          <mxGeometry x="140" y="231" width="120" height="10" as="geometry" />
        </mxCell>
        <mxCell id="A5fcUt3JzEjcqh7Cv7gU-18" value="Public subnet-us-central-1a" style="points=[[0,0],[0.25,0],[0.5,0],[0.75,0],[1,0],[1,0.25],[1,0.5],[1,0.75],[1,1],[0.75,1],[0.5,1],[0.25,1],[0,1],[0,0.75],[0,0.5],[0,0.25]];outlineConnect=0;gradientColor=none;html=1;whiteSpace=wrap;fontSize=12;fontStyle=0;container=1;pointerEvents=0;collapsible=0;recursiveResize=0;shape=mxgraph.aws4.group;grIcon=mxgraph.aws4.group_security_group;grStroke=0;strokeColor=#7AA116;fillColor=#F2F6E8;verticalAlign=top;align=left;spacingLeft=30;fontColor=#248814;dashed=0;" parent="1" vertex="1">
          <mxGeometry x="230" y="120" width="180" height="160" as="geometry" />
        </mxCell>
        <mxCell id="A5fcUt3JzEjcqh7Cv7gU-20" value="" style="sketch=0;outlineConnect=0;fontColor=#232F3E;gradientColor=none;fillColor=#8C4FFF;strokeColor=none;dashed=0;verticalLabelPosition=bottom;verticalAlign=top;align=center;html=1;fontSize=12;fontStyle=0;aspect=fixed;pointerEvents=1;shape=mxgraph.aws4.nat_gateway;" parent="A5fcUt3JzEjcqh7Cv7gU-18" vertex="1">
          <mxGeometry x="55" y="55" width="50" height="50" as="geometry" />
        </mxCell>
        <mxCell id="A5fcUt3JzEjcqh7Cv7gU-59" value="10.0.0.0/24" style="text;html=1;align=center;verticalAlign=middle;whiteSpace=wrap;rounded=0;" parent="A5fcUt3JzEjcqh7Cv7gU-18" vertex="1">
          <mxGeometry x="30" y="10" width="60" height="30" as="geometry" />
        </mxCell>
        <mxCell id="CQTaGRWy-1RV5N22hvQA-13" value="" style="html=1;strokeWidth=1;shadow=0;dashed=0;shape=mxgraph.ios7.misc.vpn;fillColor=#007AFF;strokeColor=none;buttonText=;strokeColor2=#222222;fontColor=#222222;fontSize=8;verticalLabelPosition=bottom;verticalAlign=top;align=center;sketch=0;" parent="A5fcUt3JzEjcqh7Cv7gU-18" vertex="1">
          <mxGeometry x="140" y="130" width="15" height="15" as="geometry" />
        </mxCell>
        <mxCell id="CQTaGRWy-1RV5N22hvQA-14" value="openVPN" style="text;html=1;align=center;verticalAlign=middle;whiteSpace=wrap;rounded=0;" parent="A5fcUt3JzEjcqh7Cv7gU-18" vertex="1">
          <mxGeometry x="90" y="127.5" width="50" height="17.5" as="geometry" />
        </mxCell>
        <mxCell id="A5fcUt3JzEjcqh7Cv7gU-32" value="" style="outlineConnect=0;dashed=0;verticalLabelPosition=bottom;verticalAlign=top;align=center;html=1;shape=mxgraph.aws3.efs_share;fillColor=#E05243;gradientColor=none;" parent="1" vertex="1">
          <mxGeometry x="840" y="168.5" width="69" height="63" as="geometry" />
        </mxCell>
        <mxCell id="A5fcUt3JzEjcqh7Cv7gU-34" value="" style="sketch=0;points=[[0,0,0],[0.25,0,0],[0.5,0,0],[0.75,0,0],[1,0,0],[0,1,0],[0.25,1,0],[0.5,1,0],[0.75,1,0],[1,1,0],[0,0.25,0],[0,0.5,0],[0,0.75,0],[1,0.25,0],[1,0.5,0],[1,0.75,0]];outlineConnect=0;fontColor=#232F3E;fillColor=#DD344C;strokeColor=#ffffff;dashed=0;verticalLabelPosition=bottom;verticalAlign=top;align=center;html=1;fontSize=12;fontStyle=0;aspect=fixed;shape=mxgraph.aws4.resourceIcon;resIcon=mxgraph.aws4.single_sign_on;" parent="1" vertex="1">
          <mxGeometry x="565" y="40" width="30" height="30" as="geometry" />
        </mxCell>
        <mxCell id="A5fcUt3JzEjcqh7Cv7gU-77" style="edgeStyle=orthogonalEdgeStyle;rounded=0;orthogonalLoop=1;jettySize=auto;html=1;startArrow=classic;startFill=1;" parent="1" source="A5fcUt3JzEjcqh7Cv7gU-35" target="A5fcUt3JzEjcqh7Cv7gU-32" edge="1">
          <mxGeometry relative="1" as="geometry">
            <Array as="points">
              <mxPoint x="1000" y="200" />
            </Array>
          </mxGeometry>
        </mxCell>
        <mxCell id="A5fcUt3JzEjcqh7Cv7gU-35" value="" style="sketch=0;points=[[0,0,0],[0.25,0,0],[0.5,0,0],[0.75,0,0],[1,0,0],[0,1,0],[0.25,1,0],[0.5,1,0],[0.75,1,0],[1,1,0],[0,0.25,0],[0,0.5,0],[0,0.75,0],[1,0.25,0],[1,0.5,0],[1,0.75,0]];outlineConnect=0;fontColor=#232F3E;fillColor=#7AA116;strokeColor=#ffffff;dashed=0;verticalLabelPosition=bottom;verticalAlign=top;align=center;html=1;fontSize=12;fontStyle=0;aspect=fixed;shape=mxgraph.aws4.resourceIcon;resIcon=mxgraph.aws4.efs_standard;" parent="1" vertex="1">
          <mxGeometry x="970" y="286.5" width="59" height="59" as="geometry" />
        </mxCell>
        <mxCell id="A5fcUt3JzEjcqh7Cv7gU-49" value="data-Private subnet-us-central-1b" style="points=[[0,0],[0.25,0],[0.5,0],[0.75,0],[1,0],[1,0.25],[1,0.5],[1,0.75],[1,1],[0.75,1],[0.5,1],[0.25,1],[0,1],[0,0.75],[0,0.5],[0,0.25]];outlineConnect=0;gradientColor=none;html=1;whiteSpace=wrap;fontSize=12;fontStyle=0;container=1;pointerEvents=0;collapsible=0;recursiveResize=0;shape=mxgraph.aws4.group;grIcon=mxgraph.aws4.group_security_group;grStroke=0;strokeColor=#00A4A6;fillColor=#E6F6F7;verticalAlign=top;align=left;spacingLeft=30;fontColor=#147EBA;dashed=0;" parent="1" vertex="1">
          <mxGeometry x="640" y="358" width="300" height="160" as="geometry" />
        </mxCell>
        <mxCell id="A5fcUt3JzEjcqh7Cv7gU-50" value="Amazon ElastiCache for Memcached" style="sketch=0;outlineConnect=0;fontColor=#232F3E;gradientColor=none;strokeColor=#ffffff;fillColor=#232F3E;dashed=0;verticalLabelPosition=middle;verticalAlign=bottom;align=center;html=1;whiteSpace=wrap;fontSize=10;fontStyle=1;spacing=3;shape=mxgraph.aws4.productIcon;prIcon=mxgraph.aws4.elasticache_for_memcached;" parent="A5fcUt3JzEjcqh7Cv7gU-49" vertex="1">
          <mxGeometry x="20" y="30" width="80" height="120" as="geometry" />
        </mxCell>
        <mxCell id="A5fcUt3JzEjcqh7Cv7gU-51" value="" style="outlineConnect=0;dashed=0;verticalLabelPosition=bottom;verticalAlign=top;align=center;html=1;shape=mxgraph.aws3.rds_db_instance_read_replica;fillColor=#2E73B8;gradientColor=none;" parent="A5fcUt3JzEjcqh7Cv7gU-49" vertex="1">
          <mxGeometry x="132.75" y="47" width="49.5" height="66" as="geometry" />
        </mxCell>
        <mxCell id="A5fcUt3JzEjcqh7Cv7gU-52" value="Master&lt;div&gt;MariaDB&lt;/div&gt;" style="text;html=1;align=center;verticalAlign=middle;whiteSpace=wrap;rounded=0;" parent="A5fcUt3JzEjcqh7Cv7gU-49" vertex="1">
          <mxGeometry x="131.25" y="20" width="52.5" height="20" as="geometry" />
        </mxCell>
        <mxCell id="A5fcUt3JzEjcqh7Cv7gU-53" value="EFS&lt;div&gt;Mount&lt;/div&gt;&lt;div&gt;Target&lt;/div&gt;" style="text;html=1;align=center;verticalAlign=middle;whiteSpace=wrap;rounded=0;" parent="A5fcUt3JzEjcqh7Cv7gU-49" vertex="1">
          <mxGeometry x="200" y="10" width="60" height="30" as="geometry" />
        </mxCell>
        <mxCell id="A5fcUt3JzEjcqh7Cv7gU-75" value="10.0.21.0/24" style="text;html=1;align=center;verticalAlign=middle;whiteSpace=wrap;rounded=0;" parent="A5fcUt3JzEjcqh7Cv7gU-49" vertex="1">
          <mxGeometry x="30" y="10" width="60" height="30" as="geometry" />
        </mxCell>
        <mxCell id="A5fcUt3JzEjcqh7Cv7gU-54" value="" style="outlineConnect=0;dashed=0;verticalLabelPosition=bottom;verticalAlign=top;align=center;html=1;shape=mxgraph.aws3.efs_share;fillColor=#E05243;gradientColor=none;" parent="1" vertex="1">
          <mxGeometry x="840" y="406.5" width="69" height="63" as="geometry" />
        </mxCell>
        <mxCell id="A5fcUt3JzEjcqh7Cv7gU-55" value="Users" style="text;html=1;align=center;verticalAlign=middle;whiteSpace=wrap;rounded=0;" parent="1" vertex="1">
          <mxGeometry x="40" y="10" width="60" height="30" as="geometry" />
        </mxCell>
        <mxCell id="A5fcUt3JzEjcqh7Cv7gU-61" value="Application Load Balancer" style="text;html=1;align=center;verticalAlign=middle;whiteSpace=wrap;rounded=0;" parent="1" vertex="1">
          <mxGeometry x="240" y="328" width="160" height="30" as="geometry" />
        </mxCell>
        <mxCell id="A5fcUt3JzEjcqh7Cv7gU-64" value="" style="edgeStyle=orthogonalEdgeStyle;rounded=0;orthogonalLoop=1;jettySize=auto;html=1;startArrow=classic;startFill=1;" parent="1" source="A5fcUt3JzEjcqh7Cv7gU-62" target="A5fcUt3JzEjcqh7Cv7gU-60" edge="1">
          <mxGeometry relative="1" as="geometry" />
        </mxCell>
        <mxCell id="A5fcUt3JzEjcqh7Cv7gU-62" value="" style="sketch=0;outlineConnect=0;fontColor=#232F3E;gradientColor=none;fillColor=#8C4FFF;strokeColor=none;dashed=0;verticalLabelPosition=bottom;verticalAlign=top;align=center;html=1;fontSize=12;fontStyle=0;aspect=fixed;pointerEvents=1;shape=mxgraph.aws4.internet_gateway;" parent="1" vertex="1">
          <mxGeometry x="180" y="296" width="40" height="40" as="geometry" />
        </mxCell>
        <mxCell id="A5fcUt3JzEjcqh7Cv7gU-66" style="edgeStyle=orthogonalEdgeStyle;rounded=0;orthogonalLoop=1;jettySize=auto;html=1;" parent="1" source="A5fcUt3JzEjcqh7Cv7gU-20" target="A5fcUt3JzEjcqh7Cv7gU-62" edge="1">
          <mxGeometry relative="1" as="geometry" />
        </mxCell>
        <mxCell id="A5fcUt3JzEjcqh7Cv7gU-67" style="edgeStyle=orthogonalEdgeStyle;rounded=0;orthogonalLoop=1;jettySize=auto;html=1;" parent="1" source="A5fcUt3JzEjcqh7Cv7gU-21" target="A5fcUt3JzEjcqh7Cv7gU-62" edge="1">
          <mxGeometry relative="1" as="geometry" />
        </mxCell>
        <mxCell id="A5fcUt3JzEjcqh7Cv7gU-70" style="edgeStyle=orthogonalEdgeStyle;rounded=0;orthogonalLoop=1;jettySize=auto;html=1;" parent="1" source="A5fcUt3JzEjcqh7Cv7gU-25" target="A5fcUt3JzEjcqh7Cv7gU-20" edge="1">
          <mxGeometry relative="1" as="geometry" />
        </mxCell>
        <mxCell id="A5fcUt3JzEjcqh7Cv7gU-74" style="edgeStyle=orthogonalEdgeStyle;rounded=0;orthogonalLoop=1;jettySize=auto;html=1;startArrow=classic;startFill=1;" parent="1" target="A5fcUt3JzEjcqh7Cv7gU-50" edge="1">
          <mxGeometry relative="1" as="geometry">
            <mxPoint x="550" y="448" as="sourcePoint" />
          </mxGeometry>
        </mxCell>
        <mxCell id="A5fcUt3JzEjcqh7Cv7gU-79" style="edgeStyle=orthogonalEdgeStyle;rounded=0;orthogonalLoop=1;jettySize=auto;html=1;entryX=0.5;entryY=1;entryDx=0;entryDy=0;entryPerimeter=0;startArrow=classic;startFill=1;" parent="1" source="A5fcUt3JzEjcqh7Cv7gU-26" target="A5fcUt3JzEjcqh7Cv7gU-54" edge="1">
          <mxGeometry relative="1" as="geometry">
            <Array as="points">
              <mxPoint x="510" y="540" />
              <mxPoint x="875" y="540" />
            </Array>
          </mxGeometry>
        </mxCell>
        <mxCell id="A5fcUt3JzEjcqh7Cv7gU-80" style="edgeStyle=orthogonalEdgeStyle;rounded=0;orthogonalLoop=1;jettySize=auto;html=1;entryX=0.5;entryY=0.99;entryDx=0;entryDy=0;entryPerimeter=0;startArrow=classic;startFill=1;" parent="1" source="A5fcUt3JzEjcqh7Cv7gU-26" target="A5fcUt3JzEjcqh7Cv7gU-51" edge="1">
          <mxGeometry relative="1" as="geometry">
            <Array as="points">
              <mxPoint x="520" y="530" />
              <mxPoint x="798" y="530" />
            </Array>
          </mxGeometry>
        </mxCell>
        <mxCell id="A5fcUt3JzEjcqh7Cv7gU-81" style="edgeStyle=orthogonalEdgeStyle;rounded=0;orthogonalLoop=1;jettySize=auto;html=1;startArrow=classic;startFill=1;" parent="1" source="A5fcUt3JzEjcqh7Cv7gU-30" edge="1">
          <mxGeometry relative="1" as="geometry">
            <Array as="points">
              <mxPoint x="820" y="350" />
              <mxPoint x="520" y="350" />
              <mxPoint x="520" y="410" />
            </Array>
            <mxPoint x="520" y="410" as="targetPoint" />
          </mxGeometry>
        </mxCell>
        <mxCell id="A5fcUt3JzEjcqh7Cv7gU-82" style="edgeStyle=orthogonalEdgeStyle;rounded=0;orthogonalLoop=1;jettySize=auto;html=1;entryX=0.5;entryY=0.02;entryDx=0;entryDy=0;entryPerimeter=0;startArrow=classic;startFill=1;" parent="1" source="A5fcUt3JzEjcqh7Cv7gU-25" target="A5fcUt3JzEjcqh7Cv7gU-51" edge="1">
          <mxGeometry relative="1" as="geometry">
            <Array as="points">
              <mxPoint x="520" y="300" />
              <mxPoint x="798" y="300" />
            </Array>
          </mxGeometry>
        </mxCell>
        <mxCell id="A5fcUt3JzEjcqh7Cv7gU-84" style="edgeStyle=orthogonalEdgeStyle;rounded=0;orthogonalLoop=1;jettySize=auto;html=1;entryX=0.5;entryY=1;entryDx=0;entryDy=0;entryPerimeter=0;startArrow=classic;startFill=1;" parent="1" source="A5fcUt3JzEjcqh7Cv7gU-25" target="A5fcUt3JzEjcqh7Cv7gU-32" edge="1">
          <mxGeometry relative="1" as="geometry">
            <Array as="points">
              <mxPoint x="500" y="310" />
              <mxPoint x="875" y="310" />
            </Array>
          </mxGeometry>
        </mxCell>
        <mxCell id="CQTaGRWy-1RV5N22hvQA-3" value="" style="edgeStyle=orthogonalEdgeStyle;rounded=0;orthogonalLoop=1;jettySize=auto;html=1;" parent="1" source="CQTaGRWy-1RV5N22hvQA-1" target="A5fcUt3JzEjcqh7Cv7gU-6" edge="1">
          <mxGeometry relative="1" as="geometry" />
        </mxCell>
        <mxCell id="CQTaGRWy-1RV5N22hvQA-1" value="AWS Shield" style="sketch=0;outlineConnect=0;fontColor=#232F3E;gradientColor=none;strokeColor=#ffffff;fillColor=#232F3E;dashed=0;verticalLabelPosition=middle;verticalAlign=bottom;align=center;html=1;whiteSpace=wrap;fontSize=10;fontStyle=1;spacing=3;shape=mxgraph.aws4.productIcon;prIcon=mxgraph.aws4.shield;" parent="1" vertex="1">
          <mxGeometry x="30.810000000000002" y="369.5" width="80" height="100" as="geometry" />
        </mxCell>
        <mxCell id="CQTaGRWy-1RV5N22hvQA-4" style="edgeStyle=orthogonalEdgeStyle;rounded=0;orthogonalLoop=1;jettySize=auto;html=1;entryX=0.145;entryY=0.145;entryDx=0;entryDy=0;entryPerimeter=0;startArrow=classic;startFill=1;" parent="1" source="A5fcUt3JzEjcqh7Cv7gU-3" target="A5fcUt3JzEjcqh7Cv7gU-60" edge="1">
          <mxGeometry relative="1" as="geometry">
            <Array as="points">
              <mxPoint x="160" y="300" />
              <mxPoint x="160" y="300" />
            </Array>
          </mxGeometry>
        </mxCell>
        <mxCell id="CQTaGRWy-1RV5N22hvQA-17" style="edgeStyle=orthogonalEdgeStyle;rounded=0;orthogonalLoop=1;jettySize=auto;html=1;startArrow=classic;startFill=1;" parent="1" edge="1">
          <mxGeometry relative="1" as="geometry">
            <Array as="points">
              <mxPoint x="1000" y="440" />
            </Array>
            <mxPoint x="1000" y="350" as="sourcePoint" />
            <mxPoint x="909" y="440" as="targetPoint" />
          </mxGeometry>
        </mxCell>
      </root>
    </mxGraphModel>
  </diagram>
</mxfile>
